HIERARCHY
ROOT Hips
{
	OFFSET -0.001795 -0.223333 0.028219
	CHANNELS 6 Xposition Yposition Zposition Zrotation Yrotation Xrotation 
	JOINT LeftUpLeg
	{
		OFFSET 0.069520 -0.091406 -0.006815
		CHANNELS 3 Zrotation Yrotation Xrotation
		JOINT LeftLeg
		{
			OFFSET 0.034277 -0.375199 -0.004496
			CHANNELS 3 Zrotation Yrotation Xrotation
			JOINT LeftFoot
			{
				OFFSET -0.013596 -0.397961 -0.043693
				CHANNELS 3 Zrotation Yrotation Xrotation
				JOINT LeftToe
				{
					OFFSET 0.026358 -0.055791 0.119288
					CHANNELS 3 Zrotation Yrotation Xrotation
					End Site
					{
						OFFSET 0.000000 0.000000 0.000000
					}
				}
			}
		}
	}
	JOINT RightUpLeg
	{
		OFFSET -0.067670 -0.090522 -0.004320
		CHANNELS 3 Zrotation Yrotation Xrotation
		JOINT RightLeg
		{
			OFFSET -0.038290 -0.382569 -0.008850
			CHANNELS 3 Zrotation Yrotation Xrotation
			JOINT RightFoot
			{
				OFFSET 0.015774 -0.398415 -0.042312
				CHANNELS 3 Zrotation Yrotation Xrotation
				JOINT RightToe
				{
					OFFSET -0.025372 -0.048144 0.123348
					CHANNELS 3 Zrotation Yrotation Xrotation
					End Site
					{
						OFFSET 0.000000 0.000000 0.000000
					}
				}
			}
		}
	}
	JOINT Spine
	{
		OFFSET -0.002533 0.108963 -0.026696
		CHANNELS 3 Zrotation Yrotation Xrotation
		JOINT Spine1
		{
			OFFSET 0.005487 0.135180 0.001092
			CHANNELS 3 Zrotation Yrotation Xrotation
			JOINT Spine2
			{
				OFFSET 0.001457 0.052922 0.025425
				CHANNELS 3 Zrotation Yrotation Xrotation
				JOINT Neck
				{
					OFFSET -0.002778 0.213870 -0.042857
					CHANNELS 3 Zrotation Yrotation Xrotation
					JOINT Head
					{
						OFFSET 0.005152 0.064970 0.051349
						CHANNELS 3 Zrotation Yrotation Xrotation
						End Site
						{
							OFFSET 0.000000 0.000000 0.000000
						}
					}
				}
				JOINT LeftShoulder
				{
					OFFSET 0.078845 0.121749 -0.034090
					CHANNELS 3 Zrotation Yrotation Xrotation
					JOINT LeftArm
					{
						OFFSET 0.090977 0.030469 -0.008868
						CHANNELS 3 Zrotation Yrotation Xrotation
						JOINT LeftForeArm
						{
							OFFSET 0.259612 -0.012772 -0.027456
							CHANNELS 3 Zrotation Yrotation Xrotation
							JOINT LeftHand
							{
								OFFSET 0.249234 0.008986 -0.001171
								CHANNELS 3 Zrotation Yrotation Xrotation
								End Site
								{
									OFFSET 0.000000 0.000000 0.000000
								}
							}
						}
					}
				}
				JOINT RightShoulder
				{
					OFFSET -0.081759 0.118833 -0.038615
					CHANNELS 3 Zrotation Yrotation Xrotation
					JOINT RightArm
					{
						OFFSET -0.096012 0.032551 -0.009143
						CHANNELS 3 Zrotation Yrotation Xrotation
						JOINT RightForeArm
						{
							OFFSET -0.253742 -0.013329 -0.021401
							CHANNELS 3 Zrotation Yrotation Xrotation
							JOINT RightHand
							{
								OFFSET -0.255298 0.007772 -0.005559
								CHANNELS 3 Zrotation Yrotation Xrotation
								End Site
								{
									OFFSET 0.000000 0.000000 0.000000
								}
							}
						}
					}
				}
			}
		}
	}
}
MOTION
Frames: 7
Frame Time: 0.050000
-0.363327 0.935079 1.094846 1.262759 -5.033678 4.231727 4.878022 -0.004633 1.113569 -3.346538 0.421608 -4.521184 0.331134 3.424675 8.017468 0.000000 0.000000 0.000000 0.725113 0.381178 -3.991418 2.386747 -0.031660 7.818681 10.753903 -11.990235 93.003618 0.000000 0.000000 0.000000 6.832992 0.017217 -1.599764 8.979550 -4.693321 4.762011 -12.037452 -2.092009 4.048216 8.999099 -4.519647 -15.486342 0.000000 0.000000 0.000000 -20.721521 -22.533776 11.411959 -23.598103 -29.607403 1.970993 36.383226 -42.061436 -12.189943 0.000000 0.000000 0.000000 22.600577 -4.048173 -5.119714 44.073547 -13.529556 -8.523195 26.452457 51.533829 13.991337 0.000000 0.000000 0.000000 
-0.362769 0.935220 1.094989 1.345475 -4.614485 4.235440 4.851996 -0.008348 1.122240 -3.433098 0.426351 -4.663832 0.110756 3.085468 8.091284 0.000000 0.000000 0.000000 0.669229 0.353789 -3.714653 2.368411 -0.046995 7.365097 10.879984 -12.026501 93.070328 0.000000 0.000000 0.000000 6.738024 0.024558 -1.685368 9.044473 -4.735335 4.702881 -11.932771 -1.787445 4.190932 9.236461 -4.643870 -15.402117 0.000000 0.000000 0.000000 -20.756375 -22.285938 11.121195 -23.805162 -29.149245 1.948901 36.801958 -42.932653 -12.700480 0.000000 0.000000 0.000000 22.493494 -4.253945 -5.075067 44.601309 -13.641185 -8.725624 25.025424 50.841631 13.188460 0.000000 0.000000 0.000000 
-0.362220 0.935369 1.095254 1.448640 -4.256498 4.361272 4.735739 -0.016333 1.033605 -3.416266 0.423077 -4.842668 -0.073304 2.813808 8.188119 0.000000 0.000000 0.000000 0.471557 0.355045 -3.699405 2.547766 -0.085573 7.139497 10.999158 -12.046278 93.052051 0.000000 0.000000 0.000000 6.868940 0.023889 -1.730325 9.036050 -4.727012 4.571519 -12.033491 -1.591515 4.202732 9.394160 -4.708545 -15.393397 0.000000 0.000000 0.000000 -20.614168 -21.909811 10.751883 -24.127591 -28.737464 1.953288 37.188526 -43.776042 -13.187606 0.000000 0.000000 0.000000 22.492558 -4.693266 -5.214894 44.854773 -13.915687 -8.902085 24.790920 50.786415 13.137859 0.000000 0.000000 0.000000 
-0.361756 0.935384 1.095436 1.513101 -3.943233 4.434433 4.699310 -0.026883 0.903194 -3.463039 0.423989 -4.831376 -0.218030 2.579938 8.186729 0.000000 0.000000 0.000000 0.324890 0.346556 -3.594467 2.711188 -0.121767 6.854028 11.091544 -12.073864 93.074601 0.000000 0.000000 0.000000 6.960467 0.027717 -1.802255 8.861440 -4.624210 4.368410 -11.818056 -1.569872 4.353125 9.289147 -4.626362 -15.483587 0.000000 0.000000 0.000000 -20.931662 -21.428729 10.490823 -24.259166 -28.607455 1.947112 37.340775 -44.299147 -13.438631 0.000000 0.000000 0.000000 22.341324 -5.074619 -5.372991 45.317662 -14.257540 -9.147014 24.549246 50.491428 12.958115 0.000000 0.000000 0.000000 
-0.361464 0.935301 1.095352 1.627957 -3.864014 4.557098 4.678725 -0.042835 0.646285 -3.665113 0.437793 -4.666505 -0.252653 2.519523 8.174508 0.000000 0.000000 0.000000 0.114864 0.362482 -3.729392 2.851591 -0.144680 6.838782 11.119536 -12.085195 93.103200 0.000000 0.000000 0.000000 6.832496 0.035330 -1.906161 8.914254 -4.635501 4.216219 -11.915515 -1.391290 4.406139 9.498429 -4.780563 -15.227100 0.000000 0.000000 0.000000 -20.523325 -21.106607 10.167581 -24.780786 -28.660881 2.051352 37.466230 -43.995452 -13.413667 0.000000 0.000000 0.000000 22.351587 -5.430787 -5.511463 45.507037 -14.579830 -9.320161 24.138025 50.497753 12.813716 0.000000 0.000000 0.000000 
-0.361406 0.935137 1.094949 1.652394 -3.779203 4.717166 4.855660 -0.069476 0.260359 -4.008532 0.463000 -4.368334 -0.272969 2.466635 8.106599 0.000000 0.000000 0.000000 0.088231 0.382827 -3.928545 2.875337 -0.149166 6.844184 11.154427 -12.095874 93.146172 0.000000 0.000000 0.000000 6.923163 0.027961 -1.881422 8.711896 -4.497861 3.901983 -11.736498 -1.486755 4.708990 9.399736 -4.747383 -15.213811 0.000000 0.000000 0.000000 -20.974534 -20.776622 10.097244 -24.756242 -29.006787 2.080640 37.826869 -43.694133 -13.437922 0.000000 0.000000 0.000000 22.793550 -5.573581 -5.707556 45.571350 -14.694112 -9.387869 23.118020 50.244815 12.238297 0.000000 0.000000 0.000000 
-0.361514 0.934880 1.094311 1.622162 -3.751614 4.696131 5.086704 -0.083188 0.062378 -4.331383 0.489262 -4.050490 -0.263721 2.443361 7.978612 0.000000 0.000000 0.000000 0.060050 0.398660 -4.082912 3.015997 -0.166274 7.097765 11.168930 -12.094369 93.128746 0.000000 0.000000 0.000000 6.787582 0.024059 -1.833924 8.797225 -4.542737 3.904461 -11.813780 -1.515106 4.711450 9.460994 -4.732795 -15.509950 0.000000 0.000000 0.000000 -20.940747 -20.673468 10.030659 -25.039259 -29.527249 2.221913 38.085658 -43.114921 -13.342775 0.000000 0.000000 0.000000 22.847046 -5.589390 -5.725136 46.118769 -14.906681 -9.596893 21.782351 49.812723 11.494706 0.000000 0.000000 0.000000 
